<svg width="33" height="32" viewBox="0 0 33 32" fill="none" xmlns="http://www.w3.org/2000/svg">
<g clip-path="url(#clip0_399_669)">
<path d="M17.6193 2.10386e-06C17.4577 0.0151142 17.3006 0.0619131 17.1571 0.137727C17.0135 0.213541 16.8863 0.316884 16.7827 0.441858C16.6791 0.566831 16.6011 0.710987 16.5532 0.866094C16.5054 1.0212 16.4885 1.18422 16.5036 1.34585C16.5341 1.67227 16.6931 1.9732 16.9455 2.18243C17.0704 2.28603 17.2146 2.364 17.3697 2.41189C17.5248 2.45978 17.6878 2.47665 17.8494 2.46154C23.3165 2.46154 27.6956 6.78523 27.6956 12.3077C27.6956 12.6341 27.8253 12.9472 28.0561 13.178C28.2869 13.4088 28.5999 13.5385 28.9264 13.5385C29.2528 13.5385 29.5658 13.4088 29.7967 13.178C30.0275 12.9472 30.1571 12.6341 30.1571 12.3077C30.1571 5.47077 24.6285 2.10386e-06 17.8494 2.10386e-06C17.8109 -0.00181141 17.7723 -0.00181141 17.7338 2.10386e-06C17.6952 -0.0018096 17.6566 -0.0018096 17.6181 2.10386e-06H17.6193ZM17.6193 4.92308C17.2929 4.9536 16.9919 5.11254 16.7827 5.36493C16.5735 5.61733 16.4731 5.9425 16.5036 6.26893C16.5341 6.59535 16.6931 6.89627 16.9455 7.10551C17.1979 7.31474 17.523 7.41514 17.8494 7.38462C19.8113 7.38462 20.9633 7.80431 21.6574 8.49969C22.3516 9.19508 22.7725 10.352 22.7725 12.3077C22.7725 12.6341 22.9022 12.9472 23.133 13.178C23.3638 13.4088 23.6769 13.5385 24.0033 13.5385C24.3297 13.5385 24.6428 13.4088 24.8736 13.178C25.1044 12.9472 25.2341 12.6341 25.2341 12.3077C25.2341 9.99385 24.6999 8.08369 23.3879 6.76923C22.0759 5.45477 20.1731 4.92308 17.8494 4.92308C17.8109 4.92127 17.7723 4.92127 17.7338 4.92308C17.6952 4.92127 17.6566 4.92127 17.6181 4.92308H17.6193ZM8.88699 6.30769C7.76699 6.30154 6.82052 6.60431 6.15591 7.26893C3.86422 9.56062 0.441447 16.4763 7.07899 23.1151C13.1504 29.1877 20.6322 26.3298 22.9251 24.0382C24.7528 22.2105 23.9196 18.2942 21.1553 14.4234C20.6359 14.8418 20.0218 16.2449 20.3098 16.7311C21.6771 19.0375 22.071 21.0855 21.1171 22.0382C19.6488 23.5065 15.5454 21.8129 11.9639 18.2314C8.38114 14.6462 6.68637 10.5477 8.15714 9.07693C9.0556 8.17723 10.9276 8.46154 13.0802 9.65416C13.5836 9.93231 15.015 9.33416 15.4261 8.80739C13.0753 7.20369 10.7528 6.31877 8.88822 6.30769H8.88699ZM17.8494 9.84616C16.7578 9.84616 15.8261 10.5538 15.5036 11.5385L12.1953 11.9237C12.0479 11.9171 11.9008 11.9426 11.7642 11.9984C11.6276 12.0542 11.5048 12.139 11.4042 12.247C11.3036 12.3549 11.2276 12.4835 11.1815 12.6236C11.1355 12.7638 11.1204 12.9124 11.1374 13.0589C11.1543 13.2055 11.2029 13.3467 11.2798 13.4726C11.3567 13.5986 11.46 13.7063 11.5826 13.7885C11.7052 13.8706 11.8442 13.9251 11.9899 13.9482C12.1356 13.9714 12.2847 13.9626 12.4267 13.9225L15.7338 13.5778C15.943 13.9274 16.2298 14.2142 16.5805 14.4234L16.2347 17.7305C16.1946 17.8725 16.1858 18.0215 16.2089 18.1672C16.2321 18.313 16.2866 18.4519 16.3687 18.5745C16.4508 18.6971 16.5586 18.8005 16.6845 18.8773C16.8105 18.9542 16.9516 19.0028 17.0982 19.0198C17.2448 19.0367 17.3933 19.0217 17.5335 18.9756C17.6737 18.9295 17.8022 18.8536 17.9101 18.753C18.0181 18.6524 18.1029 18.5295 18.1587 18.3929C18.2146 18.2564 18.24 18.1093 18.2334 17.9618L18.6187 14.6535C19.1117 14.4904 19.5407 14.1758 19.8446 13.7546C20.1484 13.3334 20.3116 12.827 20.311 12.3077C20.311 11.6549 20.0516 11.0288 19.59 10.5671C19.1284 10.1055 18.5023 9.84616 17.8494 9.84616ZM9.31037 27.1545C7.22668 28.1083 5.81252 29.92 5.81252 32H20.1965C20.1965 30.7151 19.2636 29.2148 18.1202 28.5772C17.3374 28.7188 16.4993 28.8074 15.6587 28.8074C13.4362 28.8134 11.25 28.244 9.31283 27.1545H9.31037Z" fill="#7C7C8A"/>
</g>
<defs>
<clipPath id="clip0_399_669">
<rect width="32" height="32" fill="white" transform="translate(0.618652)"/>
</clipPath>
</defs>
</svg>
