<svg width="10" height="10" viewBox="0 0 10 10" fill="none" xmlns="http://www.w3.org/2000/svg">
<path d="M5.83335 8.125C5.83335 7.29167 6.29169 6.54167 6.95835 6.16667C6.41669 5.95834 5.75002 5.83334 5.00002 5.83334C3.16669 5.83334 1.66669 6.58334 1.66669 7.5V8.33334H5.83335V8.125ZM8.12502 6.66667C7.33335 6.66667 6.66669 7.33334 6.66669 8.125C6.66669 8.91667 7.33335 9.58334 8.12502 9.58334C8.91669 9.58334 9.58335 8.91667 9.58335 8.125C9.58335 7.33334 8.91669 6.66667 8.12502 6.66667ZM6.66669 3.33334C6.66669 4.25001 5.91669 5.00001 5.00002 5.00001C4.08335 5.00001 3.33335 4.25001 3.33335 3.33334C3.33335 2.41667 4.08335 1.66667 5.00002 1.66667C5.91669 1.66667 6.66669 2.41667 6.66669 3.33334Z" fill="#28A745"/>
</svg>
